<?xml version="1.0" encoding="UTF-8"?>
<svg viewBox="40 46 1520 742" xmlns="http://www.w3.org/2000/svg" role="img" aria-label="Geografia Irada"><title>Geografia Irada</title><defs><path id="gi1-gG" d="M257 8L257 8Q223 8 194 1Q165-6 133.5-28.5Q102-51 80-88L80-88Q30-172 30-341L30-341Q30-434 55-505Q80-576 118-615.5Q156-655 209-680Q262-705 308-712.5Q354-720 406-720L406-720Q526-720 575-699.5Q624-679 624-621L624-621Q624-575 607-521.5Q590-468 557-468L557-468Q549-468 489-483.5Q429-499 399-499L399-499Q313-499 313-354L313-354Q313-281 333-245.5Q353-210 383-206L383-206L383-296Q383-321 434-342Q485-363 532-363Q579-363 600.5-357Q622-351 630-340L630-340Q644-322 644-308L644-308L644-31Q644-18 591.5-10Q539-2 482.5-2Q426-2 411-7.5Q396-13 394-38L394-38L387-97L379-97Q372-54 343.5-23Q315 8 257 8Z"/><mask id="gi1-mtG" maskUnits="userSpaceOnUse" x="-200" y="-1000" width="1400" height="1300"><use href="#gi1-gG" fill="#FFFFFF"/><use href="#gi1-gG" y="36" fill="#000000"/></mask><mask id="gi1-mbG" maskUnits="userSpaceOnUse" x="-200" y="-1000" width="1400" height="1300"><use href="#gi1-gG" fill="#FFFFFF"/><use href="#gi1-gG" y="-28" fill="#000000"/></mask><clipPath id="gi1-cG"><use href="#gi1-gG"/></clipPath><path id="gi1-gE" d="M547 0L547 0L123 0Q74 0 57-7Q40-14 40-29L40-29L40-662Q40-688 63.5-699Q87-710 148-710L148-710L550-710Q571-710 571-640.5Q571-571 562-534.5Q553-498 538-498L538-498Q473-498 319-511L319-511L319-444Q467-450 512-450L512-450Q539-450 539-387Q539-324 528.5-291.5Q518-259 500-259L500-259L319-263L319-199Q493-212 559-212L559-212Q580-212 580-142Q580-72 571-36Q562 0 547 0Z"/><mask id="gi1-mtE" maskUnits="userSpaceOnUse" x="-200" y="-1000" width="1400" height="1300"><use href="#gi1-gE" fill="#FFFFFF"/><use href="#gi1-gE" y="36" fill="#000000"/></mask><mask id="gi1-mbE" maskUnits="userSpaceOnUse" x="-200" y="-1000" width="1400" height="1300"><use href="#gi1-gE" fill="#FFFFFF"/><use href="#gi1-gE" y="-28" fill="#000000"/></mask><clipPath id="gi1-cE"><use href="#gi1-gE"/></clipPath><path id="gi1-gO" d="M378 9L378 9Q295 9 235.5-6.5Q176-22 126-62L126-62Q25-141 25-365L25-365Q25-459 52.5-529Q80-599 129-640L129-640Q225-720 378-720L378-720Q457-720 515.5-706Q574-692 626-655L626-655Q731-579 731-365L731-365Q731-173 636-82Q541 9 378 9ZM345-162.5Q357-148 378-148Q399-148 411-162.5Q423-177 431-224.5Q439-272 439-357Q439-442 431-488Q423-534 411-548Q399-562 378-562Q357-562 345-548Q333-534 325-488Q317-442 317-357Q317-272 325-224.5Q333-177 345-162.5Z"/><mask id="gi1-mtO" maskUnits="userSpaceOnUse" x="-200" y="-1000" width="1400" height="1300"><use href="#gi1-gO" fill="#FFFFFF"/><use href="#gi1-gO" y="36" fill="#000000"/></mask><mask id="gi1-mbO" maskUnits="userSpaceOnUse" x="-200" y="-1000" width="1400" height="1300"><use href="#gi1-gO" fill="#FFFFFF"/><use href="#gi1-gO" y="-28" fill="#000000"/></mask><clipPath id="gi1-cO"><use href="#gi1-gO"/></clipPath><path id="gi1-gR" d="M320-234L320-29Q320-16 259-8Q198 0 136.5 0Q75 0 57.5-7Q40-14 40-29L40-29L40-672Q40-698 105.5-709Q171-720 271-720Q371-720 400.5-719.5Q430-719 470-716Q510-713 533.5-706Q557-699 585.5-688Q614-677 630-659.5Q646-642 661-618L661-618Q688-575 688-495.5Q688-416 661.5-361.5Q635-307 591-279L591-279Q706-98 706-49Q706 0 509 0L509 0Q452 0 430-5Q408-10 402-27L402-27L337-233L320-234ZM320-562L320-388L346-388Q404-388 404-478L404-478Q404-524 388.5-543Q373-562 353-562L353-562L320-562Z"/><mask id="gi1-mtR" maskUnits="userSpaceOnUse" x="-200" y="-1000" width="1400" height="1300"><use href="#gi1-gR" fill="#FFFFFF"/><use href="#gi1-gR" y="36" fill="#000000"/></mask><mask id="gi1-mbR" maskUnits="userSpaceOnUse" x="-200" y="-1000" width="1400" height="1300"><use href="#gi1-gR" fill="#FFFFFF"/><use href="#gi1-gR" y="-28" fill="#000000"/></mask><clipPath id="gi1-cR"><use href="#gi1-gR"/></clipPath><path id="gi1-gA" d="M316-51Q314-22 285.5-11Q257 0 183 0Q109 0 59.5-13.5Q10-27 10-48L10-48Q10-72 99-354.5Q188-637 201-680L201-680Q206-693 281.5-701.5Q357-710 443.5-710Q530-710 539-680L539-680Q728-52 728-42Q728-32 716-22L716-22Q688 0 605 0L605 0Q428 0 424-42L424-42L417-107L321-107L316-51ZM342-297L396-297L381-477L359-477L342-297Z"/><mask id="gi1-mtA" maskUnits="userSpaceOnUse" x="-200" y="-1000" width="1400" height="1300"><use href="#gi1-gA" fill="#FFFFFF"/><use href="#gi1-gA" y="36" fill="#000000"/></mask><mask id="gi1-mbA" maskUnits="userSpaceOnUse" x="-200" y="-1000" width="1400" height="1300"><use href="#gi1-gA" fill="#FFFFFF"/><use href="#gi1-gA" y="-28" fill="#000000"/></mask><clipPath id="gi1-cA"><use href="#gi1-gA"/></clipPath><path id="gi1-gF" d="M319-29Q319-14 254.5-7Q190 0 132 0Q74 0 57-7Q40-14 40-29L40-29L40-663Q40-689 66-700Q92-711 164-711L164-711L535-711Q556-711 556-635.5Q556-560 546.5-520.5Q537-481 522-481L522-481L319-491L319-423Q452-429 497-429L497-429Q512-429 517.5-413Q523-397 523-351.5Q523-306 513-264.5Q503-223 485-223L485-223L319-229L319-29Z"/><mask id="gi1-mtF" maskUnits="userSpaceOnUse" x="-200" y="-1000" width="1400" height="1300"><use href="#gi1-gF" fill="#FFFFFF"/><use href="#gi1-gF" y="36" fill="#000000"/></mask><mask id="gi1-mbF" maskUnits="userSpaceOnUse" x="-200" y="-1000" width="1400" height="1300"><use href="#gi1-gF" fill="#FFFFFF"/><use href="#gi1-gF" y="-28" fill="#000000"/></mask><clipPath id="gi1-cF"><use href="#gi1-gF"/></clipPath><path id="gi1-gI" d="M319-24Q319-13 258-6.5Q197 0 135.5 0Q74 0 57-5.5Q40-11 40-24L40-24L40-646Q40-668 98-689.5Q156-711 228-711L228-711Q292-711 312-684L312-684Q319-674 319-664L319-664L319-24Z"/><mask id="gi1-mtI" maskUnits="userSpaceOnUse" x="-200" y="-1000" width="1400" height="1300"><use href="#gi1-gI" fill="#FFFFFF"/><use href="#gi1-gI" y="36" fill="#000000"/></mask><mask id="gi1-mbI" maskUnits="userSpaceOnUse" x="-200" y="-1000" width="1400" height="1300"><use href="#gi1-gI" fill="#FFFFFF"/><use href="#gi1-gI" y="-28" fill="#000000"/></mask><clipPath id="gi1-cI"><use href="#gi1-gI"/></clipPath><path id="gi1-gD" d="M359 0L359 0L123 0Q74 0 57-7Q40-14 40-30L40-30L40-661Q40-687 62-698.5Q84-710 138-710L138-710L363-710Q555-710 628-634.5Q701-559 701-360Q701-161 625-80.5Q549 0 359 0ZM351-561L351-561Q327-561 319-557L319-557L319-153L357-149Q387-149 402.5-197Q418-245 418-363Q418-481 402-521Q386-561 351-561Z"/><mask id="gi1-mtD" maskUnits="userSpaceOnUse" x="-200" y="-1000" width="1400" height="1300"><use href="#gi1-gD" fill="#FFFFFF"/><use href="#gi1-gD" y="36" fill="#000000"/></mask><mask id="gi1-mbD" maskUnits="userSpaceOnUse" x="-200" y="-1000" width="1400" height="1300"><use href="#gi1-gD" fill="#FFFFFF"/><use href="#gi1-gD" y="-28" fill="#000000"/></mask><clipPath id="gi1-cD"><use href="#gi1-gD"/></clipPath><linearGradient id="gi1-fa" gradientUnits="userSpaceOnUse" x1="0" y1="-720" x2="0" y2="0"><stop offset="0" stop-color="#FFFFFF"/><stop offset=".42" stop-color="#FFFFFF"/><stop offset="1" stop-color="#ECE8FF"/></linearGradient><linearGradient id="gi1-pa" x1="0" y1="0" x2="1" y2="0"><stop offset="0" stop-color="#FFFFFF"/><stop offset=".55" stop-color="#CBC6EC"/><stop offset="1" stop-color="#B9B3E0"/></linearGradient><linearGradient id="gi1-fb" gradientUnits="userSpaceOnUse" x1="0" y1="-720" x2="0" y2="0"><stop offset="0" stop-color="#FFE97E"/><stop offset=".42" stop-color="#FFD21F"/><stop offset="1" stop-color="#FFC20A"/></linearGradient><linearGradient id="gi1-pb" x1="0" y1="0" x2="1" y2="0"><stop offset="0" stop-color="#FFE36A"/><stop offset=".55" stop-color="#E0A800"/><stop offset="1" stop-color="#C99400"/></linearGradient><path id="gi1-terra" d="M88.9 -40.3L85.9 -43.2L84.4 -44.3L84.4 -43.7L88.7 -37L90.6 -33L91.5 -29.3L91.4 -25.8L90.4 -22.5L88.4 -21.7L85.6 -23.5L81.9 -27.7L75 -37.3L85.4 -21L88.3 -17.6L90.4 -16.2L91.8 -16.7L92.8 -16.4L93.4 -15.2L93.8 -10.3L93.4 -5.9L88.7 17.2L85.5 26.1L81.3 34.6L76.1 42.7L64.6 56.1L60.6 60L57.8 62.1L56.1 62.3L54.8 61L53.9 58.1L53.1 47.6L53.8 38L55.8 31.5L56.3 27.7L56.2 23.1L54.3 11.3L52.8 6.3L51 2.7L48.9 0.4L46.6 -0.6L40.2 -1L31.6 0.8L27.2 0.8L22.9 -0.4L18.8 -2.7L14.8 -6.1L11.8 -9.7L9.7 -13.5L8.6 -17.4L8.5 -21.4L9.2 -25.8L13.5 -35.9L17.1 -41.5L21 -46L25.2 -49.2L29.7 -51.2L34.5 -52L39.1 -52L43.3 -51.2L47.3 -49.5L51 -47.1L55.9 -44.8L57.1 -45L57.4 -46.1L58.5 -46.8L60.3 -47.3L68.3 -47.4L69.6 -48.4L69.9 -49.9L69.1 -52L66.2 -55.2L60 -57.6L59.9 -58.5L64.8 -61.7L65 -63.2L64.2 -64.9L59.9 -68.4L59 -66.4L56.4 -67.5L55.8 -67.2L55.5 -65.6L56.2 -59L55.6 -56.8L53.8 -56.4L50.9 -57.7L46.8 -60.8L43.2 -62.6L46.4 -57.2L45.9 -56.9L41.1 -60L38.2 -60.9L35.5 -60.5L33.1 -58.9L30.7 -56L26.1 -52.4L23.8 -51.7L21.4 -51.7L19.6 -52.3L18.2 -53.4L16.9 -57.3L17.1 -59.1L18.1 -60.6L19.8 -61.7L23.7 -63.2L24.1 -64.1L22 -66.2L21.6 -67.5L22.2 -68.9L28.9 -73.7L29.9 -75L29.9 -76.2L29.1 -77.8L37 -77.6L38.1 -78L38.3 -78.8L37.2 -80.9L38.4 -82.9L33.4 -85.9L31.8 -86.2L31.1 -85.5L32.2 -79.3L31.4 -78.4L27.2 -79.3L25.3 -80.7L24 -82.5L23.5 -87.6L24.5 -89.3L26.3 -90.1L29 -89.9L36.2 -88L34.1 -91.1L35.7 -92.4L31.4 -94.4L37 -92.4L29.1 -95.2L28.3 -95.1L31.1 -93.4L47.7 -85.2L57.1 -79.1L65.8 -71.8L73.8 -63.3L90.4 -41L92.8 -37.2L91 -38.3ZM-35.6 -93L-37.3 -92.1L-38 -91.5L-37.7 -91.1L-33.5 -90.6L-45.9 -84.5L-48.8 -82.4L-50.9 -80.1L-52 -77.7L-51.9 -76.6L-50.5 -76.8L-39.1 -83.9L-38.3 -83.6L-38.5 -82.4L-37.8 -81.2L-34.7 -81.7L-34.9 -79.6L-36.2 -76.2L-36.3 -75L-35.2 -73.8L-38.4 -72L-52.7 -67.2L-49.2 -68.7L-45.5 -69.1L-44.7 -68.4L-44.5 -67L-45.6 -65.5L-48 -64L-56.5 -60.5L-61 -57.9L-65.1 -54.4L-68.8 -50.2L-72.1 -45.1L-76.2 -40.3L-76.9 -40.5L-76.7 -42.6L-77.7 -45.3L-80.6 -46.3L-82.3 -45.4L-86 -40.1L-88 -35.8L-89.2 -31L-88.5 -30.5L-85.8 -31.3L-85.5 -30.6L-87.5 -23.5L-85.5 -21L-85.2 -12.2L-83.9 -9.3L-82.7 -8.7L-80 -9.2L-74.9 -13.3L-74.7 -10.3L-73.6 -12.2L-72.5 -13L-71 -13.2L-66.6 -12L-62.9 -9.4L-60.7 -5.7L-57.6 -2.3L-50.6 1.4L-48 4L-47.4 6.5L-47.7 7.7L-49.4 10L-49.7 10.8L-49.2 11.2L-45.8 11L-39.5 12.4L-30.2 16.3L-27 19.7L-25.4 24.2L-25.6 29.8L-29.5 41.7L-31.7 45.6L-34.1 48.2L-36.7 49.3L-40.6 53.2L-43.6 61.2L-44.7 62.4L-46.1 62.6L-48.4 61.6L-48.7 62.1L-46.9 66.8L-47.1 68.1L-49.5 69.8L-50.1 71.2L-50 73.2L-47.1 80.6L-48.4 80L-55.7 72.6L-59.6 67.3L-62.9 61.5L-65.6 55.2L-67.7 48.3L-73.1 35.5L-79.9 24.1L-82.4 18.5L-83.8 12.7L-84 6.8L-82.8 -3.8L-83 -7L-83.8 -8.8L-85.1 -9.2L-86.5 -10.7L-89.6 -17.3L-91.3 -22.3L-92.2 -27.2L-92.2 -32.1L-91.4 -36.9L-87.6 -46.5L-84.9 -51.4L-77.9 -61.5L-72.7 -66.9L-66.1 -72.5L-58.1 -78.4L-34.4 -93.7ZM0.1 -97.3L1.6 -96.7L-1.6 -92.9L-1.9 -92.1L-0.9 -91L-1.5 -90.1L-11.6 -84.5L-18.1 -82.4L-19.9 -82.6L-20.7 -83.6L-20.8 -86.7L-18.9 -91.4L-17 -93.5L-14.5 -95.1L-11.3 -96.2L-0.8 -97.5Z"/><clipPath id="gi1-esfera"><circle r="99"/></clipPath><radialGradient id="gi1-mar" cx=".32" cy=".26" r=".85"><stop offset="0" stop-color="#93E3F4"/><stop offset=".5" stop-color="#3FB6E0"/><stop offset="1" stop-color="#1F86C8"/></radialGradient><linearGradient id="gi1-lente" x1="0" y1="0" x2="0" y2="1"><stop offset="0" stop-color="#1A1433"/><stop offset="1" stop-color="#3C4E8A"/></linearGradient><pattern id="gi1-pinosmar" patternUnits="userSpaceOnUse" width="15" height="26" x="-100" y="-100"><circle cx="3.75" cy="6.5" r="3.6" fill="#FFFFFF" fill-opacity=".2"/><circle cx="11.25" cy="19.5" r="3.6" fill="#FFFFFF" fill-opacity=".2"/></pattern><mask id="gi1-crescente" maskUnits="userSpaceOnUse" x="-110" y="-110" width="220" height="220"><circle r="100" fill="#FFFFFF"/><circle cx="-16" cy="-20" r="104" fill="#000000"/></mask><mask id="gi1-tbisel" maskUnits="userSpaceOnUse" x="-110" y="-110" width="220" height="220"><use href="#gi1-terra" fill="#FFFFFF"/><use href="#gi1-terra" y="5.5" fill="#000000"/></mask><clipPath id="gi1-faces"><use href="#gi1-gG" transform="translate(48.6 330) scale(0.25) rotate(-3 337 -356)"/><use href="#gi1-gE" transform="translate(222.1 324) scale(0.25) rotate(2 310 -355)"/><circle r="100" transform="translate(474.1 241.1) scale(0.920)"/><use href="#gi1-gG" transform="translate(573.6 334) scale(0.25) rotate(2.5 337 -356)"/><use href="#gi1-gR" transform="translate(747.1 326) scale(0.25) rotate(-2 373 -360)"/><use href="#gi1-gA" transform="translate(931.1 332) scale(0.25) rotate(3 369 -355)"/><use href="#gi1-gF" transform="translate(1120.6 327) scale(0.25) rotate(-2.5 298 -355.5)"/><use href="#gi1-gI" transform="translate(1272.1 335) scale(0.25) rotate(2 179.5 -355.5)"/><use href="#gi1-gA" transform="translate(1366.9 330) scale(0.25) rotate(-3 369 -355)"/><use href="#gi1-gI" transform="rotate(-4 800 560) translate(245.3 704) scale(0.33) rotate(2 179.5 -355.5)"/><use href="#gi1-gR" transform="rotate(-4 800 560) translate(370.3 696) scale(0.33) rotate(-2.5 373 -360)"/><use href="#gi1-gA" transform="rotate(-4 800 560) translate(613.2 702) scale(0.33) rotate(2 369 -355)"/><use href="#gi1-gD" transform="rotate(-4 800 560) translate(863.4 695) scale(0.33) rotate(-2 370.5 -355)"/><use href="#gi1-gA" transform="rotate(-4 800 560) translate(1111.2 703) scale(0.33) rotate(3 369 -355)"/></clipPath><linearGradient id="gi1-raio" x1="0" y1="0" x2="1" y2="0"><stop offset="0" stop-color="#FFFFFF" stop-opacity="0"/><stop offset=".5" stop-color="#FFFFFF" stop-opacity=".75"/><stop offset="1" stop-color="#FFFFFF" stop-opacity="0"/></linearGradient></defs><ellipse class="logo-sombra" cx="800" cy="752" rx="505" ry="27" fill="#1A1433" fill-opacity=".26"/><g class="logo-linha logo-geografia"><g class="logo-letra" data-i="0"><g transform="translate(48.6 330) scale(0.25) rotate(-3 337 -356)"><g fill="#1A1433" stroke="#1A1433" stroke-width="220" stroke-linejoin="round"><use href="#gi1-gG" y="85"/><use href="#gi1-gG" y="63.8"/><use href="#gi1-gG" y="42.5"/><use href="#gi1-gG" y="21.3"/><use href="#gi1-gG" y="0"/></g><use href="#gi1-gG" y="85" fill="#8a83bc"/><use href="#gi1-gG" y="81.5" fill="#8d86be"/><use href="#gi1-gG" y="78" fill="#8f89c0"/><use href="#gi1-gG" y="74.5" fill="#928bc2"/><use href="#gi1-gG" y="71" fill="#958ec4"/><use href="#gi1-gG" y="67.5" fill="#9791c6"/><use href="#gi1-gG" y="64" fill="#9a94c8"/><use href="#gi1-gG" y="60.5" fill="#9d96ca"/><use href="#gi1-gG" y="57" fill="#9f99cc"/><use href="#gi1-gG" y="53.5" fill="#a29cce"/><use href="#gi1-gG" y="50" fill="#a59fd0"/><use href="#gi1-gG" y="46.5" fill="#a7a1d2"/><use href="#gi1-gG" y="43" fill="#aaa4d4"/><use href="#gi1-gG" y="39.5" fill="#ada7d6"/><use href="#gi1-gG" y="36" fill="#afaad8"/><use href="#gi1-gG" y="32.5" fill="#b2acda"/><use href="#gi1-gG" y="29" fill="#b5afdc"/><use href="#gi1-gG" y="25.5" fill="#b8b2de"/><use href="#gi1-gG" y="22" fill="#bab5e0"/><use href="#gi1-gG" y="18.5" fill="#bdb7e2"/><use href="#gi1-gG" y="15" fill="#c0bae4"/><use href="#gi1-gG" y="11.5" fill="#c2bde6"/><use href="#gi1-gG" y="8" fill="#c5c0e7"/><use href="#gi1-gG" y="4.5" fill="#c8c2e9"/><use href="#gi1-gG" y="1" fill="#cac5eb"/><use href="#gi1-gG" fill="url(#gi1-fa)"/><use href="#gi1-gG" fill="#FFFFFF" fill-opacity="0.62" mask="url(#gi1-mtG)"/><use href="#gi1-gG" fill="#8A83BC" fill-opacity=".38" mask="url(#gi1-mbG)"/><g clip-path="url(#gi1-cG)" fill="#FFFFFF" opacity="0.92"><rect x="122.4" y="-623" width="92" height="30" rx="15" transform="rotate(-40 168.4 -608)"/><circle cx="220.4" cy="-658" r="14"/></g></g></g><g class="logo-letra" data-i="1"><g transform="translate(222.1 324) scale(0.25) rotate(2 310 -355)"><g fill="#1A1433" stroke="#1A1433" stroke-width="220" stroke-linejoin="round"><use href="#gi1-gE" y="85"/><use href="#gi1-gE" y="63.8"/><use href="#gi1-gE" y="42.5"/><use href="#gi1-gE" y="21.3"/><use href="#gi1-gE" y="0"/></g><use href="#gi1-gE" y="85" fill="#8a83bc"/><use href="#gi1-gE" y="81.5" fill="#8d86be"/><use href="#gi1-gE" y="78" fill="#8f89c0"/><use href="#gi1-gE" y="74.5" fill="#928bc2"/><use href="#gi1-gE" y="71" fill="#958ec4"/><use href="#gi1-gE" y="67.5" fill="#9791c6"/><use href="#gi1-gE" y="64" fill="#9a94c8"/><use href="#gi1-gE" y="60.5" fill="#9d96ca"/><use href="#gi1-gE" y="57" fill="#9f99cc"/><use href="#gi1-gE" y="53.5" fill="#a29cce"/><use href="#gi1-gE" y="50" fill="#a59fd0"/><use href="#gi1-gE" y="46.5" fill="#a7a1d2"/><use href="#gi1-gE" y="43" fill="#aaa4d4"/><use href="#gi1-gE" y="39.5" fill="#ada7d6"/><use href="#gi1-gE" y="36" fill="#afaad8"/><use href="#gi1-gE" y="32.5" fill="#b2acda"/><use href="#gi1-gE" y="29" fill="#b5afdc"/><use href="#gi1-gE" y="25.5" fill="#b8b2de"/><use href="#gi1-gE" y="22" fill="#bab5e0"/><use href="#gi1-gE" y="18.5" fill="#bdb7e2"/><use href="#gi1-gE" y="15" fill="#c0bae4"/><use href="#gi1-gE" y="11.5" fill="#c2bde6"/><use href="#gi1-gE" y="8" fill="#c5c0e7"/><use href="#gi1-gE" y="4.5" fill="#c8c2e9"/><use href="#gi1-gE" y="1" fill="#cac5eb"/><use href="#gi1-gE" fill="url(#gi1-fa)"/><use href="#gi1-gE" fill="#FFFFFF" fill-opacity="0.62" mask="url(#gi1-mtE)"/><use href="#gi1-gE" fill="#8A83BC" fill-opacity=".38" mask="url(#gi1-mbE)"/><g clip-path="url(#gi1-cE)" fill="#FFFFFF" opacity="0.92"><rect x="119.8" y="-613" width="92" height="30" rx="15" transform="rotate(-40 165.8 -598)"/><circle cx="217.8" cy="-648" r="14"/></g></g></g><g class="logo-letra logo-globo" data-i="2"><g transform="translate(474.1 241.1) rotate(-4) scale(0.920)"><g fill="#1A1433"><circle cy="23" r="130"/><circle cy="17.3" r="130"/><circle cy="11.5" r="130"/><circle cy="5.8" r="130"/><circle cy="0" r="130"/></g><circle cy="23" r="100" fill="#123f7a"/><circle cy="21.5" r="100" fill="#13447f"/><circle cy="20" r="100" fill="#144884"/><circle cy="18.5" r="100" fill="#154d88"/><circle cy="17" r="100" fill="#16528d"/><circle cy="15.5" r="100" fill="#185692"/><circle cy="14" r="100" fill="#195b97"/><circle cy="12.5" r="100" fill="#1a5f9c"/><circle cy="11" r="100" fill="#1b64a1"/><circle cy="9.5" r="100" fill="#1c69a5"/><circle cy="8" r="100" fill="#1d6daa"/><circle cy="6.5" r="100" fill="#1e72af"/><circle cy="5" r="100" fill="#1f77b4"/><circle cy="3.5" r="100" fill="#207bb9"/><circle cy="2" r="100" fill="#2280be"/><circle cy="0.5" r="100" fill="#2384c2"/><g clip-path="url(#gi1-esfera)"><circle r="100" fill="url(#gi1-mar)"/><rect x="-100" y="-100" width="200" height="200" fill="url(#gi1-pinosmar)"/><use href="#gi1-terra" y="5" fill="#3F8F2A"/><use href="#gi1-terra" fill="#7CCB4E" stroke="#1A1433" stroke-width="4.2" stroke-linejoin="round"/><use href="#gi1-terra" fill="#FFFFFF" fill-opacity=".38" mask="url(#gi1-tbisel)"/><circle r="100" fill="#1A1433" fill-opacity=".24" mask="url(#gi1-crescente)"/><ellipse cx="-52" cy="-58" rx="30" ry="14" transform="rotate(-40 -52 -58)" fill="#FFFFFF" fill-opacity=".6"/><circle cx="-22" cy="-82" r="6.5" fill="#FFFFFF" fill-opacity=".6"/></g><circle r="100" fill="none" stroke="#1A1433" stroke-width="9"/><g stroke="#1A1433" stroke-width="7" stroke-linejoin="round" stroke-linecap="round"><path d="M-78 -16H-95M78 -16H95" stroke-width="13"/><rect x="-85" y="-39" width="77" height="45" rx="18" fill="url(#gi1-lente)"/><rect x="8" y="-39" width="77" height="45" rx="18" fill="url(#gi1-lente)"/><path d="M-9 -25Q0 -32 9 -25" fill="none" stroke-width="10"/></g><g fill="#FFFFFF"><path d="M-71 -31H-56L-75 -6H-82V-19Z" opacity=".82"/><path d="M22 -31H37L18 -6H11V-19Z" opacity=".82"/><circle cx="-34" cy="-27" r="3.8" opacity=".7"/><circle cx="58" cy="-27" r="3.8" opacity=".7"/></g><g fill="#1A1433"><rect x="-75" y="-64" width="51" height="13.5" rx="7" transform="rotate(13 -49.5 -57)"/><rect x="24" y="-64" width="51" height="13.5" rx="7" transform="rotate(-13 49.5 -57)"/></g><path d="M-41 26Q-2 51 47 16Q47 48 15 59Q-23 66 -41 26Z" fill="#1A1433" stroke="#1A1433" stroke-width="7" stroke-linejoin="round"/><path d="M-35 30Q-2 49 41 21L40 30Q-2 55 -33 37Z" fill="#FFFFFF"/><path d="M-6 55Q12 46 29 50Q17 61 -6 55Z" fill="#F06A7A"/></g></g><g class="logo-letra" data-i="3"><g transform="translate(573.6 334) scale(0.25) rotate(2.5 337 -356)"><g fill="#1A1433" stroke="#1A1433" stroke-width="220" stroke-linejoin="round"><use href="#gi1-gG" y="85"/><use href="#gi1-gG" y="63.8"/><use href="#gi1-gG" y="42.5"/><use href="#gi1-gG" y="21.3"/><use href="#gi1-gG" y="0"/></g><use href="#gi1-gG" y="85" fill="#8a83bc"/><use href="#gi1-gG" y="81.5" fill="#8d86be"/><use href="#gi1-gG" y="78" fill="#8f89c0"/><use href="#gi1-gG" y="74.5" fill="#928bc2"/><use href="#gi1-gG" y="71" fill="#958ec4"/><use href="#gi1-gG" y="67.5" fill="#9791c6"/><use href="#gi1-gG" y="64" fill="#9a94c8"/><use href="#gi1-gG" y="60.5" fill="#9d96ca"/><use href="#gi1-gG" y="57" fill="#9f99cc"/><use href="#gi1-gG" y="53.5" fill="#a29cce"/><use href="#gi1-gG" y="50" fill="#a59fd0"/><use href="#gi1-gG" y="46.5" fill="#a7a1d2"/><use href="#gi1-gG" y="43" fill="#aaa4d4"/><use href="#gi1-gG" y="39.5" fill="#ada7d6"/><use href="#gi1-gG" y="36" fill="#afaad8"/><use href="#gi1-gG" y="32.5" fill="#b2acda"/><use href="#gi1-gG" y="29" fill="#b5afdc"/><use href="#gi1-gG" y="25.5" fill="#b8b2de"/><use href="#gi1-gG" y="22" fill="#bab5e0"/><use href="#gi1-gG" y="18.5" fill="#bdb7e2"/><use href="#gi1-gG" y="15" fill="#c0bae4"/><use href="#gi1-gG" y="11.5" fill="#c2bde6"/><use href="#gi1-gG" y="8" fill="#c5c0e7"/><use href="#gi1-gG" y="4.5" fill="#c8c2e9"/><use href="#gi1-gG" y="1" fill="#cac5eb"/><use href="#gi1-gG" fill="url(#gi1-fa)"/><use href="#gi1-gG" fill="#FFFFFF" fill-opacity="0.62" mask="url(#gi1-mtG)"/><use href="#gi1-gG" fill="#8A83BC" fill-opacity=".38" mask="url(#gi1-mbG)"/><g clip-path="url(#gi1-cG)" fill="#FFFFFF" opacity="0.92"><rect x="122.4" y="-623" width="92" height="30" rx="15" transform="rotate(-40 168.4 -608)"/><circle cx="220.4" cy="-658" r="14"/></g></g></g><g class="logo-letra" data-i="4"><g transform="translate(747.1 326) scale(0.25) rotate(-2 373 -360)"><g fill="#1A1433" stroke="#1A1433" stroke-width="220" stroke-linejoin="round"><use href="#gi1-gR" y="85"/><use href="#gi1-gR" y="63.8"/><use href="#gi1-gR" y="42.5"/><use href="#gi1-gR" y="21.3"/><use href="#gi1-gR" y="0"/></g><use href="#gi1-gR" y="85" fill="#8a83bc"/><use href="#gi1-gR" y="81.5" fill="#8d86be"/><use href="#gi1-gR" y="78" fill="#8f89c0"/><use href="#gi1-gR" y="74.5" fill="#928bc2"/><use href="#gi1-gR" y="71" fill="#958ec4"/><use href="#gi1-gR" y="67.5" fill="#9791c6"/><use href="#gi1-gR" y="64" fill="#9a94c8"/><use href="#gi1-gR" y="60.5" fill="#9d96ca"/><use href="#gi1-gR" y="57" fill="#9f99cc"/><use href="#gi1-gR" y="53.5" fill="#a29cce"/><use href="#gi1-gR" y="50" fill="#a59fd0"/><use href="#gi1-gR" y="46.5" fill="#a7a1d2"/><use href="#gi1-gR" y="43" fill="#aaa4d4"/><use href="#gi1-gR" y="39.5" fill="#ada7d6"/><use href="#gi1-gR" y="36" fill="#afaad8"/><use href="#gi1-gR" y="32.5" fill="#b2acda"/><use href="#gi1-gR" y="29" fill="#b5afdc"/><use href="#gi1-gR" y="25.5" fill="#b8b2de"/><use href="#gi1-gR" y="22" fill="#bab5e0"/><use href="#gi1-gR" y="18.5" fill="#bdb7e2"/><use href="#gi1-gR" y="15" fill="#c0bae4"/><use href="#gi1-gR" y="11.5" fill="#c2bde6"/><use href="#gi1-gR" y="8" fill="#c5c0e7"/><use href="#gi1-gR" y="4.5" fill="#c8c2e9"/><use href="#gi1-gR" y="1" fill="#cac5eb"/><use href="#gi1-gR" fill="url(#gi1-fa)"/><use href="#gi1-gR" fill="#FFFFFF" fill-opacity="0.62" mask="url(#gi1-mtR)"/><use href="#gi1-gR" fill="#8A83BC" fill-opacity=".38" mask="url(#gi1-mbR)"/><g clip-path="url(#gi1-cR)" fill="#FFFFFF" opacity="0.92"><rect x="141.2" y="-623" width="92" height="30" rx="15" transform="rotate(-40 187.2 -608)"/><circle cx="239.2" cy="-658" r="14"/></g></g></g><g class="logo-letra" data-i="5"><g transform="translate(931.1 332) scale(0.25) rotate(3 369 -355)"><g fill="#1A1433" stroke="#1A1433" stroke-width="220" stroke-linejoin="round"><use href="#gi1-gA" y="85"/><use href="#gi1-gA" y="63.8"/><use href="#gi1-gA" y="42.5"/><use href="#gi1-gA" y="21.3"/><use href="#gi1-gA" y="0"/></g><use href="#gi1-gA" y="85" fill="#8a83bc"/><use href="#gi1-gA" y="81.5" fill="#8d86be"/><use href="#gi1-gA" y="78" fill="#8f89c0"/><use href="#gi1-gA" y="74.5" fill="#928bc2"/><use href="#gi1-gA" y="71" fill="#958ec4"/><use href="#gi1-gA" y="67.5" fill="#9791c6"/><use href="#gi1-gA" y="64" fill="#9a94c8"/><use href="#gi1-gA" y="60.5" fill="#9d96ca"/><use href="#gi1-gA" y="57" fill="#9f99cc"/><use href="#gi1-gA" y="53.5" fill="#a29cce"/><use href="#gi1-gA" y="50" fill="#a59fd0"/><use href="#gi1-gA" y="46.5" fill="#a7a1d2"/><use href="#gi1-gA" y="43" fill="#aaa4d4"/><use href="#gi1-gA" y="39.5" fill="#ada7d6"/><use href="#gi1-gA" y="36" fill="#afaad8"/><use href="#gi1-gA" y="32.5" fill="#b2acda"/><use href="#gi1-gA" y="29" fill="#b5afdc"/><use href="#gi1-gA" y="25.5" fill="#b8b2de"/><use href="#gi1-gA" y="22" fill="#bab5e0"/><use href="#gi1-gA" y="18.5" fill="#bdb7e2"/><use href="#gi1-gA" y="15" fill="#c0bae4"/><use href="#gi1-gA" y="11.5" fill="#c2bde6"/><use href="#gi1-gA" y="8" fill="#c5c0e7"/><use href="#gi1-gA" y="4.5" fill="#c8c2e9"/><use href="#gi1-gA" y="1" fill="#cac5eb"/><use href="#gi1-gA" fill="url(#gi1-fa)"/><use href="#gi1-gA" fill="#FFFFFF" fill-opacity="0.62" mask="url(#gi1-mtA)"/><use href="#gi1-gA" fill="#8A83BC" fill-opacity=".38" mask="url(#gi1-mbA)"/><g clip-path="url(#gi1-cA)" fill="#FFFFFF" opacity="0.92"><rect x="299" y="-575" width="92" height="30" rx="15" transform="rotate(-40 345 -560)"/><circle cx="397" cy="-610" r="14"/></g></g></g><g class="logo-letra" data-i="6"><g transform="translate(1120.6 327) scale(0.25) rotate(-2.5 298 -355.5)"><g fill="#1A1433" stroke="#1A1433" stroke-width="220" stroke-linejoin="round"><use href="#gi1-gF" y="85"/><use href="#gi1-gF" y="63.8"/><use href="#gi1-gF" y="42.5"/><use href="#gi1-gF" y="21.3"/><use href="#gi1-gF" y="0"/></g><use href="#gi1-gF" y="85" fill="#8a83bc"/><use href="#gi1-gF" y="81.5" fill="#8d86be"/><use href="#gi1-gF" y="78" fill="#8f89c0"/><use href="#gi1-gF" y="74.5" fill="#928bc2"/><use href="#gi1-gF" y="71" fill="#958ec4"/><use href="#gi1-gF" y="67.5" fill="#9791c6"/><use href="#gi1-gF" y="64" fill="#9a94c8"/><use href="#gi1-gF" y="60.5" fill="#9d96ca"/><use href="#gi1-gF" y="57" fill="#9f99cc"/><use href="#gi1-gF" y="53.5" fill="#a29cce"/><use href="#gi1-gF" y="50" fill="#a59fd0"/><use href="#gi1-gF" y="46.5" fill="#a7a1d2"/><use href="#gi1-gF" y="43" fill="#aaa4d4"/><use href="#gi1-gF" y="39.5" fill="#ada7d6"/><use href="#gi1-gF" y="36" fill="#afaad8"/><use href="#gi1-gF" y="32.5" fill="#b2acda"/><use href="#gi1-gF" y="29" fill="#b5afdc"/><use href="#gi1-gF" y="25.5" fill="#b8b2de"/><use href="#gi1-gF" y="22" fill="#bab5e0"/><use href="#gi1-gF" y="18.5" fill="#bdb7e2"/><use href="#gi1-gF" y="15" fill="#c0bae4"/><use href="#gi1-gF" y="11.5" fill="#c2bde6"/><use href="#gi1-gF" y="8" fill="#c5c0e7"/><use href="#gi1-gF" y="4.5" fill="#c8c2e9"/><use href="#gi1-gF" y="1" fill="#cac5eb"/><use href="#gi1-gF" fill="url(#gi1-fa)"/><use href="#gi1-gF" fill="#FFFFFF" fill-opacity="0.62" mask="url(#gi1-mtF)"/><use href="#gi1-gF" fill="#8A83BC" fill-opacity=".38" mask="url(#gi1-mbF)"/><g clip-path="url(#gi1-cF)" fill="#FFFFFF" opacity="0.92"><rect x="115.7" y="-614" width="92" height="30" rx="15" transform="rotate(-40 161.7 -599)"/><circle cx="213.7" cy="-649" r="14"/></g></g></g><g class="logo-letra" data-i="7"><g transform="translate(1272.1 335) scale(0.25) rotate(2 179.5 -355.5)"><g fill="#1A1433" stroke="#1A1433" stroke-width="220" stroke-linejoin="round"><use href="#gi1-gI" y="85"/><use href="#gi1-gI" y="63.8"/><use href="#gi1-gI" y="42.5"/><use href="#gi1-gI" y="21.3"/><use href="#gi1-gI" y="0"/></g><use href="#gi1-gI" y="85" fill="#8a83bc"/><use href="#gi1-gI" y="81.5" fill="#8d86be"/><use href="#gi1-gI" y="78" fill="#8f89c0"/><use href="#gi1-gI" y="74.5" fill="#928bc2"/><use href="#gi1-gI" y="71" fill="#958ec4"/><use href="#gi1-gI" y="67.5" fill="#9791c6"/><use href="#gi1-gI" y="64" fill="#9a94c8"/><use href="#gi1-gI" y="60.5" fill="#9d96ca"/><use href="#gi1-gI" y="57" fill="#9f99cc"/><use href="#gi1-gI" y="53.5" fill="#a29cce"/><use href="#gi1-gI" y="50" fill="#a59fd0"/><use href="#gi1-gI" y="46.5" fill="#a7a1d2"/><use href="#gi1-gI" y="43" fill="#aaa4d4"/><use href="#gi1-gI" y="39.5" fill="#ada7d6"/><use href="#gi1-gI" y="36" fill="#afaad8"/><use href="#gi1-gI" y="32.5" fill="#b2acda"/><use href="#gi1-gI" y="29" fill="#b5afdc"/><use href="#gi1-gI" y="25.5" fill="#b8b2de"/><use href="#gi1-gI" y="22" fill="#bab5e0"/><use href="#gi1-gI" y="18.5" fill="#bdb7e2"/><use href="#gi1-gI" y="15" fill="#c0bae4"/><use href="#gi1-gI" y="11.5" fill="#c2bde6"/><use href="#gi1-gI" y="8" fill="#c5c0e7"/><use href="#gi1-gI" y="4.5" fill="#c8c2e9"/><use href="#gi1-gI" y="1" fill="#cac5eb"/><use href="#gi1-gI" fill="url(#gi1-fa)"/><use href="#gi1-gI" fill="#FFFFFF" fill-opacity="0.62" mask="url(#gi1-mtI)"/><use href="#gi1-gI" fill="#8A83BC" fill-opacity=".38" mask="url(#gi1-mbI)"/><g clip-path="url(#gi1-cI)" fill="#FFFFFF" opacity="0.92"><rect x="111.7" y="-614" width="92" height="30" rx="15" transform="rotate(-40 157.7 -599)"/><circle cx="209.7" cy="-649" r="14"/></g></g></g><g class="logo-letra" data-i="8"><g transform="translate(1366.9 330) scale(0.25) rotate(-3 369 -355)"><g fill="#1A1433" stroke="#1A1433" stroke-width="220" stroke-linejoin="round"><use href="#gi1-gA" y="85"/><use href="#gi1-gA" y="63.8"/><use href="#gi1-gA" y="42.5"/><use href="#gi1-gA" y="21.3"/><use href="#gi1-gA" y="0"/></g><use href="#gi1-gA" y="85" fill="#8a83bc"/><use href="#gi1-gA" y="81.5" fill="#8d86be"/><use href="#gi1-gA" y="78" fill="#8f89c0"/><use href="#gi1-gA" y="74.5" fill="#928bc2"/><use href="#gi1-gA" y="71" fill="#958ec4"/><use href="#gi1-gA" y="67.5" fill="#9791c6"/><use href="#gi1-gA" y="64" fill="#9a94c8"/><use href="#gi1-gA" y="60.5" fill="#9d96ca"/><use href="#gi1-gA" y="57" fill="#9f99cc"/><use href="#gi1-gA" y="53.5" fill="#a29cce"/><use href="#gi1-gA" y="50" fill="#a59fd0"/><use href="#gi1-gA" y="46.5" fill="#a7a1d2"/><use href="#gi1-gA" y="43" fill="#aaa4d4"/><use href="#gi1-gA" y="39.5" fill="#ada7d6"/><use href="#gi1-gA" y="36" fill="#afaad8"/><use href="#gi1-gA" y="32.5" fill="#b2acda"/><use href="#gi1-gA" y="29" fill="#b5afdc"/><use href="#gi1-gA" y="25.5" fill="#b8b2de"/><use href="#gi1-gA" y="22" fill="#bab5e0"/><use href="#gi1-gA" y="18.5" fill="#bdb7e2"/><use href="#gi1-gA" y="15" fill="#c0bae4"/><use href="#gi1-gA" y="11.5" fill="#c2bde6"/><use href="#gi1-gA" y="8" fill="#c5c0e7"/><use href="#gi1-gA" y="4.5" fill="#c8c2e9"/><use href="#gi1-gA" y="1" fill="#cac5eb"/><use href="#gi1-gA" fill="url(#gi1-fa)"/><use href="#gi1-gA" fill="#FFFFFF" fill-opacity="0.62" mask="url(#gi1-mtA)"/><use href="#gi1-gA" fill="#8A83BC" fill-opacity=".38" mask="url(#gi1-mbA)"/><g clip-path="url(#gi1-cA)" fill="#FFFFFF" opacity="0.92"><rect x="299" y="-575" width="92" height="30" rx="15" transform="rotate(-40 345 -560)"/><circle cx="397" cy="-610" r="14"/></g></g></g></g><g class="logo-linha logo-irada"><g transform="rotate(-4 800 560)"><g class="logo-letra" data-i="9"><g transform="translate(245.3 704) scale(0.33) rotate(2 179.5 -355.5)"><g fill="#1A1433" stroke="#1A1433" stroke-width="220" stroke-linejoin="round"><use href="#gi1-gI" y="85"/><use href="#gi1-gI" y="63.8"/><use href="#gi1-gI" y="42.5"/><use href="#gi1-gI" y="21.3"/><use href="#gi1-gI" y="0"/></g><g stroke="#1A1433" stroke-width="32" stroke-linejoin="round"><path d="M93.5 -759V-689A86 32 0 0 0 265.5 -689V-759Z" fill="url(#gi1-pb)"/><ellipse cx="179.5" cy="-759" rx="86" ry="32" fill="#FFE97E"/></g><ellipse cx="147.5" cy="-766" rx="26" ry="10" fill="#FFFFFF" opacity=".9"/><use href="#gi1-gI" y="85" fill="#946a00"/><use href="#gi1-gI" y="81.5" fill="#976d00"/><use href="#gi1-gI" y="78" fill="#9a6f00"/><use href="#gi1-gI" y="74.5" fill="#9d7200"/><use href="#gi1-gI" y="71" fill="#a17400"/><use href="#gi1-gI" y="67.5" fill="#a47700"/><use href="#gi1-gI" y="64" fill="#a77900"/><use href="#gi1-gI" y="60.5" fill="#aa7c00"/><use href="#gi1-gI" y="57" fill="#ad7e00"/><use href="#gi1-gI" y="53.5" fill="#b08100"/><use href="#gi1-gI" y="50" fill="#b38400"/><use href="#gi1-gI" y="46.5" fill="#b68600"/><use href="#gi1-gI" y="43" fill="#ba8900"/><use href="#gi1-gI" y="39.5" fill="#bd8b00"/><use href="#gi1-gI" y="36" fill="#c08e00"/><use href="#gi1-gI" y="32.5" fill="#c39000"/><use href="#gi1-gI" y="29" fill="#c69300"/><use href="#gi1-gI" y="25.5" fill="#c99500"/><use href="#gi1-gI" y="22" fill="#cc9800"/><use href="#gi1-gI" y="18.5" fill="#cf9b00"/><use href="#gi1-gI" y="15" fill="#d39d00"/><use href="#gi1-gI" y="11.5" fill="#d6a000"/><use href="#gi1-gI" y="8" fill="#d9a200"/><use href="#gi1-gI" y="4.5" fill="#dca500"/><use href="#gi1-gI" y="1" fill="#dfa700"/><use href="#gi1-gI" fill="url(#gi1-fb)"/><use href="#gi1-gI" fill="#FFFFFF" fill-opacity="0.62" mask="url(#gi1-mtI)"/><use href="#gi1-gI" fill="#946A00" fill-opacity=".38" mask="url(#gi1-mbI)"/><g clip-path="url(#gi1-cI)" fill="#FFFFFF" opacity="0.92"><rect x="111.7" y="-614" width="92" height="30" rx="15" transform="rotate(-40 157.7 -599)"/><circle cx="209.7" cy="-649" r="14"/></g></g></g><g class="logo-letra" data-i="10"><g transform="translate(370.3 696) scale(0.33) rotate(-2.5 373 -360)"><g fill="#1A1433" stroke="#1A1433" stroke-width="220" stroke-linejoin="round"><use href="#gi1-gR" y="85"/><use href="#gi1-gR" y="63.8"/><use href="#gi1-gR" y="42.5"/><use href="#gi1-gR" y="21.3"/><use href="#gi1-gR" y="0"/></g><g stroke="#1A1433" stroke-width="32" stroke-linejoin="round"><path d="M153.79999999999998 -768V-698A86 32 0 0 0 325.79999999999995 -698V-768Z" fill="url(#gi1-pb)"/><ellipse cx="239.79999999999998" cy="-768" rx="86" ry="32" fill="#FFE97E"/></g><ellipse cx="207.79999999999998" cy="-775" rx="26" ry="10" fill="#FFFFFF" opacity=".9"/><g stroke="#1A1433" stroke-width="32" stroke-linejoin="round"><path d="M400.22 -768V-698A86 32 0 0 0 572.22 -698V-768Z" fill="url(#gi1-pb)"/><ellipse cx="486.22" cy="-768" rx="86" ry="32" fill="#FFE97E"/></g><ellipse cx="454.22" cy="-775" rx="26" ry="10" fill="#FFFFFF" opacity=".9"/><use href="#gi1-gR" y="85" fill="#946a00"/><use href="#gi1-gR" y="81.5" fill="#976d00"/><use href="#gi1-gR" y="78" fill="#9a6f00"/><use href="#gi1-gR" y="74.5" fill="#9d7200"/><use href="#gi1-gR" y="71" fill="#a17400"/><use href="#gi1-gR" y="67.5" fill="#a47700"/><use href="#gi1-gR" y="64" fill="#a77900"/><use href="#gi1-gR" y="60.5" fill="#aa7c00"/><use href="#gi1-gR" y="57" fill="#ad7e00"/><use href="#gi1-gR" y="53.5" fill="#b08100"/><use href="#gi1-gR" y="50" fill="#b38400"/><use href="#gi1-gR" y="46.5" fill="#b68600"/><use href="#gi1-gR" y="43" fill="#ba8900"/><use href="#gi1-gR" y="39.5" fill="#bd8b00"/><use href="#gi1-gR" y="36" fill="#c08e00"/><use href="#gi1-gR" y="32.5" fill="#c39000"/><use href="#gi1-gR" y="29" fill="#c69300"/><use href="#gi1-gR" y="25.5" fill="#c99500"/><use href="#gi1-gR" y="22" fill="#cc9800"/><use href="#gi1-gR" y="18.5" fill="#cf9b00"/><use href="#gi1-gR" y="15" fill="#d39d00"/><use href="#gi1-gR" y="11.5" fill="#d6a000"/><use href="#gi1-gR" y="8" fill="#d9a200"/><use href="#gi1-gR" y="4.5" fill="#dca500"/><use href="#gi1-gR" y="1" fill="#dfa700"/><use href="#gi1-gR" fill="url(#gi1-fb)"/><use href="#gi1-gR" fill="#FFFFFF" fill-opacity="0.62" mask="url(#gi1-mtR)"/><use href="#gi1-gR" fill="#946A00" fill-opacity=".38" mask="url(#gi1-mbR)"/><g clip-path="url(#gi1-cR)" fill="#FFFFFF" opacity="0.92"><rect x="141.2" y="-623" width="92" height="30" rx="15" transform="rotate(-40 187.2 -608)"/><circle cx="239.2" cy="-658" r="14"/></g></g></g><g class="logo-letra" data-i="11"><g transform="translate(613.2 702) scale(0.33) rotate(2 369 -355)"><g fill="#1A1433" stroke="#1A1433" stroke-width="220" stroke-linejoin="round"><use href="#gi1-gA" y="85"/><use href="#gi1-gA" y="63.8"/><use href="#gi1-gA" y="42.5"/><use href="#gi1-gA" y="21.3"/><use href="#gi1-gA" y="0"/></g><g stroke="#1A1433" stroke-width="32" stroke-linejoin="round"><path d="M283 -758V-688A86 32 0 0 0 455 -688V-758Z" fill="url(#gi1-pb)"/><ellipse cx="369" cy="-758" rx="86" ry="32" fill="#FFE97E"/></g><ellipse cx="337" cy="-765" rx="26" ry="10" fill="#FFFFFF" opacity=".9"/><use href="#gi1-gA" y="85" fill="#946a00"/><use href="#gi1-gA" y="81.5" fill="#976d00"/><use href="#gi1-gA" y="78" fill="#9a6f00"/><use href="#gi1-gA" y="74.5" fill="#9d7200"/><use href="#gi1-gA" y="71" fill="#a17400"/><use href="#gi1-gA" y="67.5" fill="#a47700"/><use href="#gi1-gA" y="64" fill="#a77900"/><use href="#gi1-gA" y="60.5" fill="#aa7c00"/><use href="#gi1-gA" y="57" fill="#ad7e00"/><use href="#gi1-gA" y="53.5" fill="#b08100"/><use href="#gi1-gA" y="50" fill="#b38400"/><use href="#gi1-gA" y="46.5" fill="#b68600"/><use href="#gi1-gA" y="43" fill="#ba8900"/><use href="#gi1-gA" y="39.5" fill="#bd8b00"/><use href="#gi1-gA" y="36" fill="#c08e00"/><use href="#gi1-gA" y="32.5" fill="#c39000"/><use href="#gi1-gA" y="29" fill="#c69300"/><use href="#gi1-gA" y="25.5" fill="#c99500"/><use href="#gi1-gA" y="22" fill="#cc9800"/><use href="#gi1-gA" y="18.5" fill="#cf9b00"/><use href="#gi1-gA" y="15" fill="#d39d00"/><use href="#gi1-gA" y="11.5" fill="#d6a000"/><use href="#gi1-gA" y="8" fill="#d9a200"/><use href="#gi1-gA" y="4.5" fill="#dca500"/><use href="#gi1-gA" y="1" fill="#dfa700"/><use href="#gi1-gA" fill="url(#gi1-fb)"/><use href="#gi1-gA" fill="#FFFFFF" fill-opacity="0.62" mask="url(#gi1-mtA)"/><use href="#gi1-gA" fill="#946A00" fill-opacity=".38" mask="url(#gi1-mbA)"/><g clip-path="url(#gi1-cA)" fill="#FFFFFF" opacity="0.92"><rect x="299" y="-575" width="92" height="30" rx="15" transform="rotate(-40 345 -560)"/><circle cx="397" cy="-610" r="14"/></g></g></g><g class="logo-letra" data-i="12"><g transform="translate(863.4 695) scale(0.33) rotate(-2 370.5 -355)"><g fill="#1A1433" stroke="#1A1433" stroke-width="220" stroke-linejoin="round"><use href="#gi1-gD" y="85"/><use href="#gi1-gD" y="63.8"/><use href="#gi1-gD" y="42.5"/><use href="#gi1-gD" y="21.3"/><use href="#gi1-gD" y="0"/></g><g stroke="#1A1433" stroke-width="32" stroke-linejoin="round"><path d="M152.29999999999998 -758V-688A86 32 0 0 0 324.29999999999995 -688V-758Z" fill="url(#gi1-pb)"/><ellipse cx="238.29999999999998" cy="-758" rx="86" ry="32" fill="#FFE97E"/></g><ellipse cx="206.29999999999998" cy="-765" rx="26" ry="10" fill="#FFFFFF" opacity=".9"/><g stroke="#1A1433" stroke-width="32" stroke-linejoin="round"><path d="M396.87 -758V-688A86 32 0 0 0 568.87 -688V-758Z" fill="url(#gi1-pb)"/><ellipse cx="482.87" cy="-758" rx="86" ry="32" fill="#FFE97E"/></g><ellipse cx="450.87" cy="-765" rx="26" ry="10" fill="#FFFFFF" opacity=".9"/><use href="#gi1-gD" y="85" fill="#946a00"/><use href="#gi1-gD" y="81.5" fill="#976d00"/><use href="#gi1-gD" y="78" fill="#9a6f00"/><use href="#gi1-gD" y="74.5" fill="#9d7200"/><use href="#gi1-gD" y="71" fill="#a17400"/><use href="#gi1-gD" y="67.5" fill="#a47700"/><use href="#gi1-gD" y="64" fill="#a77900"/><use href="#gi1-gD" y="60.5" fill="#aa7c00"/><use href="#gi1-gD" y="57" fill="#ad7e00"/><use href="#gi1-gD" y="53.5" fill="#b08100"/><use href="#gi1-gD" y="50" fill="#b38400"/><use href="#gi1-gD" y="46.5" fill="#b68600"/><use href="#gi1-gD" y="43" fill="#ba8900"/><use href="#gi1-gD" y="39.5" fill="#bd8b00"/><use href="#gi1-gD" y="36" fill="#c08e00"/><use href="#gi1-gD" y="32.5" fill="#c39000"/><use href="#gi1-gD" y="29" fill="#c69300"/><use href="#gi1-gD" y="25.5" fill="#c99500"/><use href="#gi1-gD" y="22" fill="#cc9800"/><use href="#gi1-gD" y="18.5" fill="#cf9b00"/><use href="#gi1-gD" y="15" fill="#d39d00"/><use href="#gi1-gD" y="11.5" fill="#d6a000"/><use href="#gi1-gD" y="8" fill="#d9a200"/><use href="#gi1-gD" y="4.5" fill="#dca500"/><use href="#gi1-gD" y="1" fill="#dfa700"/><use href="#gi1-gD" fill="url(#gi1-fb)"/><use href="#gi1-gD" fill="#FFFFFF" fill-opacity="0.62" mask="url(#gi1-mtD)"/><use href="#gi1-gD" fill="#946A00" fill-opacity=".38" mask="url(#gi1-mbD)"/><g clip-path="url(#gi1-cD)" fill="#FFFFFF" opacity="0.92"><rect x="140.4" y="-613" width="92" height="30" rx="15" transform="rotate(-40 186.4 -598)"/><circle cx="238.4" cy="-648" r="14"/></g></g></g><g class="logo-letra" data-i="13"><g transform="translate(1111.2 703) scale(0.33) rotate(3 369 -355)"><g fill="#1A1433" stroke="#1A1433" stroke-width="220" stroke-linejoin="round"><use href="#gi1-gA" y="85"/><use href="#gi1-gA" y="63.8"/><use href="#gi1-gA" y="42.5"/><use href="#gi1-gA" y="21.3"/><use href="#gi1-gA" y="0"/></g><g stroke="#1A1433" stroke-width="32" stroke-linejoin="round"><path d="M283 -758V-688A86 32 0 0 0 455 -688V-758Z" fill="url(#gi1-pb)"/><ellipse cx="369" cy="-758" rx="86" ry="32" fill="#FFE97E"/></g><ellipse cx="337" cy="-765" rx="26" ry="10" fill="#FFFFFF" opacity=".9"/><use href="#gi1-gA" y="85" fill="#946a00"/><use href="#gi1-gA" y="81.5" fill="#976d00"/><use href="#gi1-gA" y="78" fill="#9a6f00"/><use href="#gi1-gA" y="74.5" fill="#9d7200"/><use href="#gi1-gA" y="71" fill="#a17400"/><use href="#gi1-gA" y="67.5" fill="#a47700"/><use href="#gi1-gA" y="64" fill="#a77900"/><use href="#gi1-gA" y="60.5" fill="#aa7c00"/><use href="#gi1-gA" y="57" fill="#ad7e00"/><use href="#gi1-gA" y="53.5" fill="#b08100"/><use href="#gi1-gA" y="50" fill="#b38400"/><use href="#gi1-gA" y="46.5" fill="#b68600"/><use href="#gi1-gA" y="43" fill="#ba8900"/><use href="#gi1-gA" y="39.5" fill="#bd8b00"/><use href="#gi1-gA" y="36" fill="#c08e00"/><use href="#gi1-gA" y="32.5" fill="#c39000"/><use href="#gi1-gA" y="29" fill="#c69300"/><use href="#gi1-gA" y="25.5" fill="#c99500"/><use href="#gi1-gA" y="22" fill="#cc9800"/><use href="#gi1-gA" y="18.5" fill="#cf9b00"/><use href="#gi1-gA" y="15" fill="#d39d00"/><use href="#gi1-gA" y="11.5" fill="#d6a000"/><use href="#gi1-gA" y="8" fill="#d9a200"/><use href="#gi1-gA" y="4.5" fill="#dca500"/><use href="#gi1-gA" y="1" fill="#dfa700"/><use href="#gi1-gA" fill="url(#gi1-fb)"/><use href="#gi1-gA" fill="#FFFFFF" fill-opacity="0.62" mask="url(#gi1-mtA)"/><use href="#gi1-gA" fill="#946A00" fill-opacity=".38" mask="url(#gi1-mbA)"/><g clip-path="url(#gi1-cA)" fill="#FFFFFF" opacity="0.92"><rect x="299" y="-575" width="92" height="30" rx="15" transform="rotate(-40 345 -560)"/><circle cx="397" cy="-610" r="14"/></g></g></g></g></g><g class="logo-brilho" clip-path="url(#gi1-faces)" opacity="0"><g transform="skewX(-22)"><rect class="logo-raio" x="-260" y="0" width="200" height="900" fill="url(#gi1-raio)"/></g></g></svg>
